<svg xmlns="http://www.w3.org/2000/svg" width="158.468" height="30.949" viewBox="0 0 158.468 30.949">
  <g id="组_37" data-name="组 37" transform="translate(-349 97.849)">
    <g id="DeFinder" transform="translate(349 -97.849)">
      <path id="路径_1" data-name="路径 1" d="M160.6,42.953l3.114-17.763h6.779q5.032,0,7.238,2.637a7.687,7.687,0,0,1,1.539,6.54,10.117,10.117,0,0,1-3.45,6.261q-2.767,2.321-7.858,2.326Zm6.668-4.234h.541a5.6,5.6,0,0,0,3.7-1.126,5.637,5.637,0,0,0,1.762-3.509,4.124,4.124,0,0,0-.577-3.524,4.237,4.237,0,0,0-3.334-1.123h-.472Z" transform="translate(-119.41 -18.778)" fill="#89979c"/>
      <path id="路径_2" data-name="路径 2" d="M244.317,56.708a6.28,6.28,0,0,1-4.9-1.908,6.026,6.026,0,0,1-1.405-4.929,6.925,6.925,0,0,1,2.5-4.811,7.54,7.54,0,0,1,5-1.859,6.107,6.107,0,0,1,4.219,1.436,4.234,4.234,0,0,1,1.377,3.8,8.781,8.781,0,0,1-.444,2.131h-7.353a2.437,2.437,0,0,0,.726,1.983,3.479,3.479,0,0,0,2.352.682A7.222,7.222,0,0,0,250.5,52.02l-.533,3.167A9.592,9.592,0,0,1,244.317,56.708Zm-.682-8.348h2.821a2.91,2.91,0,0,0,.239-.769,1.334,1.334,0,0,0-.177-1.052,1.026,1.026,0,0,0-.89-.4q-1.4,0-1.993,2.208Z" transform="translate(-176.929 -32.169)" fill="#89979c"/>
      <path id="路径_3" data-name="路径 3" d="M295.06,42.953l3.129-17.763h12.206l-.731,4.145h-6.286l-.477,2.731h4.873l-.741,4.1h-4.873l-1.193,6.781Z" transform="translate(-219.385 -18.778)" fill="#7377de"/>
      <path id="路径_4" data-name="路径 4" d="M348.5,42.953l2.262-12.79h5.532l-2.262,12.79Zm2.519-14.239.623-3.524h5.532l-.623,3.524Z" transform="translate(-259.119 -18.778)" fill="#7377de"/>
      <path id="路径_5" data-name="路径 5" d="M388.3,45.479a6.474,6.474,0,0,1,4.84-2.249,3.551,3.551,0,0,1,3.011,1.359,4.6,4.6,0,0,1,.649,3.668l-1.4,8.11h-5.5l1.241-7.163q.3-1.724-1.108-1.718a2.031,2.031,0,0,0-1.516.769,4.492,4.492,0,0,0-.975,2.288l-.993,5.825h-5.5L382.6,47.5a26.735,26.735,0,0,0,.441-3.911h5.276A11.885,11.885,0,0,1,388.3,45.479Z" transform="translate(-283.321 -32.191)" fill="#7377de"/>
      <path id="路径_6" data-name="路径 6" d="M459.5,30.684l.905-5.494h5.386l-2.424,13.829a23.537,23.537,0,0,0-.395,3.934h-4.835a12.359,12.359,0,0,1,0-1.688,4.541,4.541,0,0,1-4.142,2.052,4.356,4.356,0,0,1-3.924-2.052,6.583,6.583,0,0,1-.813-4.873,8.31,8.31,0,0,1,2.5-4.747,6.855,6.855,0,0,1,4.873-1.836,5.109,5.109,0,0,1,2.87.875Zm-3.383,8.895q1.893,0,2.426-3.021a3.941,3.941,0,0,0-.118-2.206,1.3,1.3,0,0,0-1.3-.813q-1.893,0-2.426,3.019a3.937,3.937,0,0,0,.118,2.206A1.3,1.3,0,0,0,456.115,39.578Z" transform="translate(-333.931 -18.778)" fill="#7377de"/>
      <path id="路径_7" data-name="路径 7" d="M521.435,56.738a6.277,6.277,0,0,1-4.9-1.908A6.027,6.027,0,0,1,515.13,49.9a6.925,6.925,0,0,1,2.493-4.811,7.535,7.535,0,0,1,4.988-1.849,6.113,6.113,0,0,1,4.219,1.436,4.219,4.219,0,0,1,1.375,3.8,8.544,8.544,0,0,1-.436,2.136h-7.34a2.437,2.437,0,0,0,.726,1.983,3.479,3.479,0,0,0,2.352.682,7.222,7.222,0,0,0,4.1-1.216l-.521,3.167A9.725,9.725,0,0,1,521.435,56.738Zm-.68-8.348h2.821a2.908,2.908,0,0,0,.239-.769,1.334,1.334,0,0,0-.177-1.052,1.026,1.026,0,0,0-.885-.4q-1.4,0-1.993,2.208Z" transform="translate(-382.975 -32.198)" fill="#7377de"/>
      <path id="路径_8" data-name="路径 8" d="M571,56.286l1.539-8.882a26.711,26.711,0,0,0,.444-3.909h5.3a12.547,12.547,0,0,1-.059,2.013,4.83,4.83,0,0,1,4.8-2.367l-1.067,5.919a3.286,3.286,0,0,0-1.567-.413,2.89,2.89,0,0,0-2.013.664,3.888,3.888,0,0,0-1.008,2.308l-.828,4.678Z" transform="translate(-424.553 -32.111)" fill="#7377de"/>
      <path id="路径_9" data-name="路径 9" d="M15.463.19H0V31.139H15.486a15.388,15.388,0,0,0,8.32-2.426L20.3,25.2a10.69,10.69,0,1,1,4.478-4.275L28.251,24.4a15.388,15.388,0,0,0,2.7-8.72h0A15.486,15.486,0,0,0,15.463.19Z" transform="translate(0 -0.19)" fill="#7377de"/>
      <circle id="椭圆_1" data-name="椭圆 1" cx="5.801" cy="5.801" r="5.801" transform="translate(9.72 9.792)" fill="#7377de"/>
    </g>
  </g>
</svg>
