<?xml version="1.0" encoding="utf-8"?>
<!-- Generator: Adobe Illustrator 24.2.0, SVG Export Plug-In . SVG Version: 6.00 Build 0)  -->
<svg version="1.1" id="图层_1" xmlns="http://www.w3.org/2000/svg" xmlns:xlink="http://www.w3.org/1999/xlink" x="0px" y="0px"
	 viewBox="0 0 200 200" style="enable-background:new 0 0 200 200;" xml:space="preserve">
<style type="text/css">
	.st0{fill:#7377DE;}
</style>
<path class="st0" d="M131.6,107.6l-39.9,39.9c-4.3,4.3-11,4.3-15.2,0c-4.3-4.3-4.3-11,0-15.2l32.2-32.2L76.5,67.8
	c-4.3-4.3-4.3-11,0-15.2c4.3-4.3,11-4.3,15.2,0l39.9,39.9C135.7,96.6,135.7,103.4,131.6,107.6L131.6,107.6z M100,0
	C44.8,0,0,44.8,0,100s44.8,100,100,100s100-44.8,100-100S155.2,0,100,0z"/>
</svg>
