<svg id="隔离模式" xmlns="http://www.w3.org/2000/svg" width="200" height="200" viewBox="0 0 200 200">
  <defs>
    <style>
      .cls-1 {
        fill: #89979c;
      }
    </style>
  </defs>
  <path class="cls-1" d="M100,38a62,62,0,1,0,62,62A62,62,0,0,0,100,38ZM76.54,69.42a35.6,35.6,0,0,1,50.31,0A3.44,3.44,0,0,1,122,74.29a28.68,28.68,0,0,0-40.58,0,3.44,3.44,0,1,1-4.86-4.87Zm10.08,60.29H79.77l-6.92-13.54-2.78-6.1h-.18c.3,3.12.86,7,.86,10.34v9.3H64.37v-28h6.85l7,13.39,2.74,6.22h.2A87.6,87.6,0,0,1,80.22,111V101.7h6.41ZM111,107.28H99.86v6.13h9.57V119H99.86v10.69H93.13v-28H111ZM90.81,85A3.44,3.44,0,1,1,86,80.15a22.3,22.3,0,0,1,31.49,0A3.44,3.44,0,1,1,112.58,85,15.41,15.41,0,0,0,90.81,85ZM128,107.28v22.43h-6.74V107.28h-7.56v-5.57h21.91v5.57Z"/>
</svg>
