<svg xmlns="http://www.w3.org/2000/svg" xmlns:xlink="http://www.w3.org/1999/xlink" width="99.353" height="80" viewBox="0 0 99.353 80">
  <defs>
    <clipPath id="clip-path">
      <path id="Clip_12" data-name="Clip 12" d="M0,0H10.643V3.956H0Z" transform="translate(0 0)" fill="none"/>
    </clipPath>
  </defs>
  <g id="zanwushuju" opacity="0.6">
    <path id="Fill_1" data-name="Fill 1" d="M0,8.948C0,13.891,21.768,17.9,48.62,17.9s48.62-4.006,48.62-8.949S75.473,0,48.62,0,0,4.007,0,8.948Z" transform="translate(1.813 62.103)" fill="#f1f5f9"/>
    <path id="Fill_2" data-name="Fill 2" d="M25.056,33.706.835,53.333,0,13.6,25.653,0Z" transform="translate(57.056 25.951)" fill="#f0f2f5"/>
    <path id="Fill_3" data-name="Fill 3" d="M0,26.983V12.188l35.616,10.2C38,5.447,42.774-2.905,42.774.913c0,2.028.537,28.814.835,38.837Z" transform="translate(14.341 39.714)" fill="#e6e9f0"/>
    <path id="Fill_4" data-name="Fill 4" d="M12.408,25.474.716,22.968,0,14.616.6,0,37.942,10.738Z" transform="translate(44.767 15.213)" fill="#cdd2d9"/>
    <path id="Fill_5" data-name="Fill 5" d="M30.425,23.147,0,14.735,30.425,0Z" transform="translate(14.938 15.153)" fill="#e6e9f0"/>
    <path id="Fill_6" data-name="Fill 6" d="M9.068,18.315.239,0,0,15.809Z" transform="translate(82.47 25.951)" fill="#e1e5ec"/>
    <path id="Fill_7" data-name="Fill 7" d="M43.609,33.169,0,19.926,8.232,0l42.3,10.738Z" transform="translate(6.586 29.888)" fill="#f1f5f9"/>
    <path id="Fill_8" data-name="Fill 8" d="M9.256.381C8.54-.692,3.35.5,1.023,3.961.367,5.035-.349,8.256.188,7.54,1.56,5.512,4.066,6.705,5.975,5.094,7.586,3.782,9.912,1.217,9.256.381Z" transform="translate(86.517 1.229)" fill="#f0f1f4"/>
    <path id="Fill_9" data-name="Fill 9" d="M.387,8.114H.148c-.533-.3.545-3.417.835-4a9.161,9.161,0,0,1,3.58-3.043A10.152,10.152,0,0,1,8.141,0,1.659,1.659,0,0,1,9.514.537c.238.342.18.857-.173,1.532A13.878,13.878,0,0,1,6.233,5.608a5.052,5.052,0,0,1-3.009,1.07l-.033,0c-.158.035-.316.067-.469.1A3.168,3.168,0,0,0,.446,7.934c.049.025.072.062.063.1A.118.118,0,0,1,.387,8.114ZM8.261.418A9.1,9.1,0,0,0,1.52,4.235,9.171,9.171,0,0,0,.766,6.382c-.071.264-.138.514-.2.717A4.222,4.222,0,0,1,3.31,6.026a5.244,5.244,0,0,0,2.743-.955C7.72,3.627,9.226,1.727,9.276,1.006a.307.307,0,0,0-.06-.23C9.158.545,8.819.418,8.261.418Z" transform="translate(86.498 1.253)" fill="#cdd2d9"/>
    <path id="Fill_10" data-name="Fill 10" d="M.418,6.264,0,5.966C1.909,3.52,4.116,1.67,8.77.358c.418-.119.656-.239.716-.239C9.724,0,9.724,0,10.321,0l.119.537a2.551,2.551,0,0,1-.716.12c-.12,0-.3.119-.716.238C4.415,2.088,2.208,3.878.418,6.264Z" transform="translate(88.913)" fill="#cdd2d9"/>
    <g id="编组" transform="translate(0 68.587)">
      <path id="Clip_12-2" data-name="Clip 12" d="M0,0H10.643V3.956H0Z" transform="translate(0 0)" fill="none"/>
      <g id="编组-2" data-name="编组" clip-path="url(#clip-path)">
        <path id="Fill_11" data-name="Fill 11" d="M10.044,1.992c-.119,1.074-4.534,2.327-7.7.835C1.274,2.41-.515.381.141.739,2.05,1.455,3.422-.215,5.51.024,7.24.322,10.044,1.157,10.044,1.992Z" transform="translate(0.599 0.114)" fill="#f0f1f4"/>
        <path id="Fill_13" data-name="Fill 13" d="M5.876,3.956a9.625,9.625,0,0,1-3.4-.656A6.4,6.4,0,0,1,.03,1.131a.337.337,0,0,1,0-.277A.315.315,0,0,1,.323.677.629.629,0,0,1,.567.734a2.273,2.273,0,0,0,.926.2,4.612,4.612,0,0,0,1.594-.4L3.191.5l.2-.072A5.3,5.3,0,0,1,5.232,0a3.194,3.194,0,0,1,.7.078c1.039.129,4.713.974,4.713,2.207a.981.981,0,0,1-.716.835A9.961,9.961,0,0,1,5.876,3.956ZM.805,1.331A8.106,8.106,0,0,0,2.595,2.822a8.2,8.2,0,0,0,3.266.639,6.644,6.644,0,0,0,3.595-.877c.062-.05.117-.092.164-.128.179-.138.254-.2.254-.29C9.873,1.642,7.706.8,5.578.5A3.1,3.1,0,0,0,5.195.472,4.973,4.973,0,0,0,3.739.746c-.2.059-.4.12-.608.167a4.134,4.134,0,0,1-1.757.472A3.1,3.1,0,0,1,.805,1.331Z" transform="translate(-0.006 0)" fill="#cdd2d9"/>
      </g>
    </g>
    <path id="Fill_14" data-name="Fill 14" d="M9.068,1.014A15.739,15.739,0,0,0,3.878.776,9.23,9.23,0,0,1,0,.537L.239,0a9.315,9.315,0,0,0,3.7.239,14.515,14.515,0,0,1,5.25.238Z" transform="translate(3.007 69.799)" fill="#cdd2d9"/>
    <path id="Fill_15" data-name="Fill 15" d="M5.309,8.054A14.663,14.663,0,0,1,0,6.92l.239-.537A14.67,14.67,0,0,0,5.362,7.5a6.36,6.36,0,0,0,3.05-.7,3.562,3.562,0,0,1-1.85-4.653C6.916,1.2,8.2.718,9.307.656c.085,0,.17-.006.253-.006A2.657,2.657,0,0,1,11.931,1.67c.449.9.215,1.99-.716,3.341a6.418,6.418,0,0,1-1.492,1.61,10.082,10.082,0,0,0,2.148.239c3.054,0,5.422-2.308,7.04-6.861l.536.179c-1.729,4.829-4.3,7.277-7.636,7.277A8.564,8.564,0,0,1,9.068,7.04,6.323,6.323,0,0,1,5.309,8.054Zm4.117-6.8A2.5,2.5,0,0,0,7.219,2.386a3.075,3.075,0,0,0,.238,2.8,3.615,3.615,0,0,0,1.67,1.252A5.766,5.766,0,0,0,10.8,4.712c.772-1.187,1.013-2.09.716-2.685a2.237,2.237,0,0,0-1.849-.775Z" transform="translate(64.334 11.872)" fill="#cdd2d9"/>
  </g>
</svg>
