<?xml version="1.0" encoding="UTF-8"?>
<svg width="31px" height="30px" viewBox="0 0 31 30" version="1.1" xmlns="http://www.w3.org/2000/svg" xmlns:xlink="http://www.w3.org/1999/xlink">
    <title>shequwodeshendu</title>
    <g id="standard" stroke="none" stroke-width="1" fill="none" fill-rule="evenodd">
        <g id="Standard" transform="translate(-461.000000, -338.000000)" fill="#7377DE" fill-rule="nonzero">
            <g id="shequwodeshendu" transform="translate(461.333333, 338.000000)">
                <path d="M15,0 C6.71571429,0 0,6.71571429 0,15 C0,23.2842857 6.71571429,30 15,30 C23.2842857,30 30,23.2842857 30,15 C30,6.71571429 23.2842857,0 15,0 Z M15,28.125 C14.1428571,28.125 13.3071429,28.0414286 12.4971429,27.885 C15.9021429,26.9314286 19.9457143,24.5764286 21.8678571,20.7964286 C21.8678571,20.7964286 25.8107143,14.3378571 19.14,8.52428571 C19.14,8.52428571 20.8564286,11.22 20.9078571,13.935 C20.9078571,13.935 21.315,17.5028571 18.1585714,19.7314286 C13.5042857,23.0164286 6.255,21.5378571 3.16714286,20.685 C2.34,18.9664286 1.875,17.0378571 1.875,15 C1.875,11.9507143 2.91428571,9.14571429 4.65857143,6.91714286 C5.52,11.07 7.29642857,14.5392857 8.49214286,15.8271429 C10.0864286,17.5435714 12.4328571,19.365 15.4435714,18.6128571 C18.4564286,17.8607143 19.0692857,14.5671429 19.0692857,14.5671429 C19.7357143,11.7664286 18.7885714,8.43857143 18.7371429,8.36785714 C18.6857143,8.29714286 18.2335714,8.21785714 18.2335714,8.21785714 C18.7071429,12.63 17.5457143,14.5821429 17.5457143,14.5821429 C15.855,18.0428571 13.3778571,16.9735714 13.3778571,16.9735714 C10.62,15.5678571 10.7507143,11.6078571 10.7507143,11.6078571 C10.6692857,8.95285714 11.6807143,4.62857143 13.6307143,1.94571429 C14.0807143,1.89857143 14.5371429,1.875 15,1.875 C16.7571429,1.875 18.4328571,2.22 19.965,2.84785714 C18.3385714,4.215 15.8292857,6.77357143 15.8292857,6.77357143 C11.7664286,10.5385714 12.555,13.7078571 12.555,13.7078571 C13.2021429,17.0357143 15.2164286,14.7942857 15.2164286,14.7942857 C17.3335714,12.6064286 17.1771429,8.24571429 17.1771429,8.24571429 C16.32,8.385 15.7757143,8.85857143 15.7757143,8.85857143 C15.6707143,11.7642857 13.9542857,13.5685714 13.9542857,13.5685714 C13.29,14.3035714 12.8164286,13.6028571 12.8164286,13.6028571 C12.4671429,13.0778571 13.1678571,12.7092857 13.1678571,12.7092857 C14.1471429,11.8521429 14.4428571,10.3885714 14.43,9.83785714 C14.415,9.28714286 14.7085714,9.13714286 14.7085714,9.13714286 C16.0928571,8.06785714 17.475,7.43785714 17.475,7.43785714 C19.3307143,6.49285714 22.6392857,6.33428571 22.6392857,6.33428571 C23.4214286,6.36 24.1757143,6.33 24.81,6.28285714 C26.8714286,8.60142857 28.1228577,11.6528571 28.1228577,15 C28.125,22.2492857 22.2492857,28.125 15,28.125 Z" id="形状"></path>
            </g>
        </g>
    </g>
</svg>