<?xml version="1.0" encoding="UTF-8"?>
<svg width="30px" height="30px" viewBox="0 0 30 30" version="1.1" xmlns="http://www.w3.org/2000/svg" xmlns:xlink="http://www.w3.org/1999/xlink">
    <title>椭圆形</title>
    <g id="standard" stroke="none" stroke-width="1" fill="none" fill-rule="evenodd">
        <g id="Standard" transform="translate(-416.000000, -166.000000)">
            <g id="编组" transform="translate(416.000000, 166.000000)">
                <circle id="椭圆形" fill="#7377DE" cx="15" cy="15" r="15"></circle>
                <path d="M12.6666667,6 L7.33333333,6 C6.59791667,6 6,6.59791667 6,7.33333333 L6,12.6666667 C6,13.4020833 6.59791667,14 7.33333333,14 L12.6666667,14 C13.4020833,14 14,13.4020833 14,12.6666667 L14,7.33333333 C14,6.59791667 13.4020833,6 12.6666667,6 Z M12,12 L8,12 L8,8 L12,8 L12,12 Z M22.6666667,6 L17.3333333,6 C16.5979167,6 16,6.59791667 16,7.33333333 L16,12.6666667 C16,13.4020833 16.5979167,14 17.3333333,14 L22.6666667,14 C23.4020833,14 24,13.4020833 24,12.6666667 L24,7.33333333 C24,6.59791667 23.4020833,6 22.6666667,6 Z M22,12 L18,12 L18,8 L22,8 L22,12 Z M12.6666667,16 L7.33333333,16 C6.59791667,16 6,16.5979167 6,17.3333333 L6,22.6666667 C6,23.4020833 6.59791667,24 7.33333333,24 L12.6666667,24 C13.4020833,24 14,23.4020833 14,22.6666667 L14,17.3333333 C14,16.5979167 13.4020833,16 12.6666667,16 Z M12,22 L8,22 L8,18 L12,18 L12,22 Z M22.6666667,16 L17.3333333,16 C16.5979167,16 16,16.5979167 16,17.3333333 L16,22.6666667 C16,23.4020833 16.5979167,24 17.3333333,24 L22.6666667,24 C23.4020833,24 24,23.4020833 24,22.6666667 L24,17.3333333 C24,16.5979167 23.4020833,16 22.6666667,16 Z M22,22 L18,22 L18,18 L22,18 L22,22 Z" id="形状" fill="#FFFFFF" fill-rule="nonzero"></path>
            </g>
        </g>
    </g>
</svg>