<?xml version="1.0" encoding="UTF-8"?>
<svg width="27px" height="30px" viewBox="0 0 27 30" version="1.1" xmlns="http://www.w3.org/2000/svg" xmlns:xlink="http://www.w3.org/1999/xlink">
    <title>zhuanyeban</title>
    <defs>
        <linearGradient x1="41.182521%" y1="0%" x2="41.182521%" y2="100%" id="linearGradient-1">
            <stop stop-color="#FFA07E" offset="0%"></stop>
            <stop stop-color="#FF5485" offset="100%"></stop>
        </linearGradient>
    </defs>
    <g id="PRO" stroke="none" stroke-width="1" fill="none" fill-rule="evenodd">
        <g id="Standard" transform="translate(-416.000000, -166.000000)">
            <g id="zhuanyeban" transform="translate(416.000000, 166.000000)">
                <path d="M24.6554871,24.21992 L15.8441954,29.34744 C14.3490286,30.21752 12.6503363,30.21752 11.1553283,29.34744 L2.3441954,24.21992 C0.849187403,23.34984 0,21.8676 0,20.12776 L0,9.87208 C0,8.13224 0.849346159,6.64984 2.3441954,5.77992 L11.1553283,0.65256 C12.6503363,-0.21752 14.3490286,-0.21752 15.8441954,0.65256 L24.6554871,5.77992 C26.1503363,6.64984 27,8.1324 27,9.87208 L27,20.12776 C26.9995237,21.8676 26.1503363,23.35 24.6554871,24.21992 Z" id="路径" fill="url(#linearGradient-1)"></path>
                <path d="M3,11.1638559 L3.06727211,10.96428 C3.26843529,10.2991889 4.00630579,9.90019904 4.74433956,10.0996131 C5.07988368,10.2326636 5.34815569,10.4322395 5.48237334,10.7647041 C5.75064535,11.2303812 5.68353653,11.8289469 5.34815569,12.2280987 C5.28104687,12.2280987 5.28104687,12.294624 5.21393805,12.3608255 C6.22024383,12.9593913 7.15960408,13.5581189 8.09880105,14.0899975 C8.43418188,14.2895734 8.83683482,14.5556746 9.17221566,14.7550886 C9.3064333,14.8881392 9.50775977,14.8217758 9.5748686,14.6885633 L9.64197742,14.6218762 C10.7829907,12.626603 11.8564053,10.6314917 12.9969287,8.56953133 C12.527167,8.36995546 12.1916229,7.90460214 12.1916229,7.37223794 C12.1916229,6.97324805 12.3258405,6.64062159 12.5941125,6.37468228 C13.1308198,5.84231808 13.9359624,5.90900523 14.4729963,6.37468228 L14.5399418,6.44104571 C15.0764859,7.10629863 14.8753227,7.90444027 14.0032345,8.50284418 C14.2715065,9.03504652 14.5399418,9.56692513 14.8753227,10.0326022 C15.6807918,11.4958349 16.4856079,12.9590676 17.2907505,14.3556131 C17.4919137,14.6882396 17.6261313,14.754603 17.8944033,14.555189 C19.1691444,13.8234108 20.3769399,13.0252691 21.651681,12.2938147 L21.8528442,12.1609259 C21.5844089,11.9611882 21.4501913,11.6285617 21.3832457,11.2959353 C21.3158103,10.5643189 21.919953,9.96591502 22.590878,9.89938973 C23.1948574,9.83286444 23.7315647,10.2320162 23.9327279,10.830582 C23.9327279,11.0301578 24,11.0965213 24,11.1632084 L24,11.6285617 C23.7988368,12.2936528 23.3292383,12.6926427 22.5912046,12.6926427 C22.5912046,12.759168 22.5240957,12.8256933 22.5240957,12.958582 L20.3098311,20.4076342 C20.2427223,20.7404225 20.1083414,20.8069478 19.7731238,20.8069478 L7.22703947,20.8069478 C6.89133207,20.8069478 6.7572777,20.7404225 6.69016888,20.4076342 C6.08651603,18.412361 5.48253662,16.4172497 4.94566603,14.3552894 C4.81128511,13.8230871 4.6102852,13.2912085 4.47590427,12.6924808 C3.93903368,12.6924808 3.46959848,12.4265415 3.20116319,12.0273898 C3.13405437,11.8279758 3.06694554,11.7614505 3,11.628238 L3,11.1638559 L3,11.1638559 Z M13.5336361,22.0712521 L19.437743,22.0712521 C19.9744503,22.0712521 20.4440488,22.4705657 20.4440488,23.0024443 C20.4440488,23.4677977 20.1083414,23.9334747 19.6390694,24 L7.62952913,24 C7.22720275,24 6.82438653,23.7338988 6.69033216,23.3349089 C6.55595123,22.9359191 6.69033216,22.470242 7.025713,22.2709899 C7.22703947,22.1381011 7.42820266,22.071414 7.69680123,22.071414 C9.64230398,22.0048887 11.58797,22.0712521 13.5336361,22.0712521 Z" id="形状" fill="#FFFFFF" fill-rule="nonzero"></path>
            </g>
        </g>
    </g>
</svg>