<?xml version="1.0" encoding="UTF-8"?>
<svg width="30px" height="30px" viewBox="0 0 30 30" version="1.1" xmlns="http://www.w3.org/2000/svg" xmlns:xlink="http://www.w3.org/1999/xlink">
    <title>genggaoxiao 2</title>
    <g id="standard" stroke="none" stroke-width="1" fill="none" fill-rule="evenodd">
        <g id="Standard" transform="translate(-962.000000, -338.000000)" fill="#7377DE" fill-rule="nonzero">
            <g id="genggaoxiao" transform="translate(962.000000, 338.000000)">
                <path d="M18.1969697,11.8181818 C17.5454545,11.1666667 16.5,11.1666667 15.8484848,11.8181818 C15.1969697,12.469697 15.1969697,13.5151515 15.8484848,14.1666667 C16.5,14.8181818 17.5454545,14.8181818 18.1969697,14.1666667 C18.8484848,13.530303 18.8484848,12.469697 18.1969697,11.8181818 Z" id="路径"></path>
                <g id="形状-2">
                    <path d="M15,0 C6.72727273,0 0,6.71212121 0,15 C0,23.2727273 6.71212121,30 15,30 C23.2878788,30 30,23.2878788 30,15 C30,6.71212121 23.2878788,0 15,0 Z M12.2272727,19.2878788 C11.7272727,19.7878788 8.98484848,22.2424242 8.37878788,21.6363636 C7.77272727,21.030303 9.51515152,17.5909091 10.030303,17.0909091 C10.530303,16.5909091 11.4393939,16.6666667 12.0454545,17.2727273 C12.6515152,17.8787879 12.7272727,18.7878788 12.2272727,19.2878788 Z M18.3939394,17.3181818 C18.3030303,17.3939394 18.2272727,17.4848485 18.2121212,17.6060606 C17.9242424,18.7424242 17.3333333,19.7878788 16.5,20.6060606 C16.1060606,21 15.6818182,21.3333333 15.1969697,21.6212121 C15.0757576,21.6969697 14.9090909,21.7121212 14.7727273,21.6515152 C14.5151515,21.5606061 14.3787879,21.2727273 14.4848485,21.0151515 C14.7424242,20.3030303 14.8636364,19.5606061 14.8636364,18.8030303 C14.8030303,18.8181818 14.7272727,18.8333333 14.6666667,18.8333333 C14.0454545,18.2878788 13.4393939,17.7272727 12.8484848,17.1515152 C12.2575758,16.5606061 11.6969697,15.9545455 11.1666667,15.3333333 C11.1818182,15.2727273 11.1969697,15.1969697 11.1969697,15.1363636 C10.4393939,15.1363636 9.6969697,15.2575758 8.98484848,15.5151515 C8.54545455,15.6818182 8.13636364,15.2121212 8.37878788,14.8030303 C8.66666667,14.3333333 9,13.8939394 9.39393939,13.5 C10.2272727,12.6666667 11.2575758,12.0757576 12.3939394,11.7878788 C12.5,11.7575758 12.6060606,11.6969697 12.6818182,11.6060606 C14.6212121,8.95454545 17.969697,7.71212121 21.1666667,8.46969697 C21.3484848,8.51515152 21.4848485,8.65151515 21.530303,8.83333333 C22.2878788,12.0454545 21.0454545,15.3787879 18.3939394,17.3181818 Z" id="形状"></path>
                </g>
            </g>
        </g>
    </g>
</svg>