<?xml version="1.0" encoding="UTF-8"?>
<svg width="30px" height="30px" viewBox="0 0 30 30" version="1.1" xmlns="http://www.w3.org/2000/svg" xmlns:xlink="http://www.w3.org/1999/xlink">
    <title>形状结合</title>
    <defs>
        <linearGradient x1="41.182521%" y1="0%" x2="41.182521%" y2="100%" id="linearGradient-1">
            <stop stop-color="#FFA07E" offset="0%"></stop>
            <stop stop-color="#FF5485" offset="100%"></stop>
        </linearGradient>
    </defs>
    <g id="PRO" stroke="none" stroke-width="1" fill="none" fill-rule="evenodd">
        <g id="Standard" transform="translate(-241.000000, -338.000000)" fill="url(#linearGradient-1)">
            <path d="M271,353.9375 C270.513967,361.785 263.985093,368 255.999374,368 L256.000626,368 L256.15982,367.995169 C259.412304,367.799091 262.049266,361.658427 262.250157,353.9375 L262.250157,353.9375 Z M249.749843,353.9375 C249.951522,361.785 252.672304,368 256.000626,368 L256.000626,368 L255.999374,368 L255.673278,367.996513 C247.837167,367.82942 241.479375,361.6775 241,353.9375 L241,353.9375 Z M260.3649,353.9375 C260.158211,361.825 257.431166,366.125 255.999374,366.125 C254.567581,366.125 251.840536,361.825 251.633847,353.9375 L251.633847,353.9375 Z M255.999374,339.875 C257.431166,339.875 260.159464,344.175 260.3649,352.0625 L260.3649,352.0625 L251.6351,352.0625 C251.840536,344.175 254.567581,339.875 255.999374,339.875 Z M256.000626,338 L256.326722,338.003487 C264.162833,338.17058 270.520625,344.3225 271,352.0625 L271,352.0625 L262.250157,352.0625 C262.047225,344.215 259.326444,338 255.999374,338 C252.672304,338 249.951522,344.215 249.749843,352.0625 L249.749843,352.0625 L241,352.0625 C241.48478,344.215 248.014907,338 256.000626,338 L255.999374,338 L256.000626,338 Z" id="形状结合"></path>
        </g>
    </g>
</svg>