<?xml version="1.0" encoding="UTF-8"?>
<svg width="31px" height="30px" viewBox="0 0 31 30" version="1.1" xmlns="http://www.w3.org/2000/svg" xmlns:xlink="http://www.w3.org/1999/xlink">
    <title>形状</title>
    <defs>
        <linearGradient x1="41.182521%" y1="0%" x2="41.182521%" y2="100%" id="linearGradient-1">
            <stop stop-color="#FFA07E" offset="0%"></stop>
            <stop stop-color="#FF5485" offset="100%"></stop>
        </linearGradient>
    </defs>
    <g id="PRO" stroke="none" stroke-width="1" fill="none" fill-rule="evenodd">
        <g id="Standard" transform="translate(-461.000000, -338.000000)" fill="url(#linearGradient-1)">
            <path d="M476.333333,338 C468.049048,338 461.333333,344.715714 461.333333,353 C461.333333,361.284286 468.049048,368 476.333333,368 C484.617619,368 491.333333,361.284286 491.333333,353 C491.333333,344.715714 484.617619,338 476.333333,338 Z M476.333333,366.125 C475.47619,366.125 474.640476,366.041429 473.830476,365.885 C477.235476,364.931429 481.279048,362.576429 483.20119,358.796429 C483.20119,358.796429 487.144048,352.337857 480.473333,346.524286 C480.473333,346.524286 482.189762,349.22 482.24119,351.935 C482.24119,351.935 482.648333,355.502857 479.491905,357.731429 C474.837619,361.016429 467.588333,359.537857 464.500476,358.685 C463.673333,356.966429 463.208333,355.037857 463.208333,353 C463.208333,349.950714 464.247619,347.145714 465.991905,344.917143 C466.853333,349.07 468.629762,352.539286 469.825476,353.827143 C471.419762,355.543571 473.76619,357.365 476.776905,356.612857 C479.789762,355.860714 480.402619,352.567143 480.402619,352.567143 C481.069048,349.766429 480.121905,346.438571 480.070476,346.367857 C480.019048,346.297143 479.566905,346.217857 479.566905,346.217857 C480.040476,350.63 478.879048,352.582143 478.879048,352.582143 C477.188333,356.042857 474.71119,354.973571 474.71119,354.973571 C471.953333,353.567857 472.084048,349.607857 472.084048,349.607857 C472.002619,346.952857 473.014048,342.628571 474.964048,339.945714 C475.414048,339.898571 475.870476,339.875 476.333333,339.875 C478.090476,339.875 479.76619,340.22 481.298333,340.847857 C479.671905,342.215 477.162619,344.773571 477.162619,344.773571 C473.099762,348.538571 473.888333,351.707857 473.888333,351.707857 C474.535476,355.035714 476.549762,352.794286 476.549762,352.794286 C478.666905,350.606429 478.510476,346.245714 478.510476,346.245714 C477.653333,346.385 477.109048,346.858571 477.109048,346.858571 C477.004048,349.764286 475.287619,351.568571 475.287619,351.568571 C474.623333,352.303571 474.149762,351.602857 474.149762,351.602857 C473.800476,351.077857 474.50119,350.709286 474.50119,350.709286 C475.480476,349.852143 475.77619,348.388571 475.763333,347.837857 C475.748333,347.287143 476.041905,347.137143 476.041905,347.137143 C477.42619,346.067857 478.808333,345.437857 478.808333,345.437857 C480.664048,344.492857 483.972619,344.334286 483.972619,344.334286 C484.754762,344.36 485.509048,344.33 486.143333,344.282857 C488.204762,346.601429 489.456191,349.652857 489.456191,353 C489.458333,360.249286 483.582619,366.125 476.333333,366.125 Z" id="形状"></path>
        </g>
    </g>
</svg>