<?xml version="1.0" encoding="UTF-8"?>
<svg width="30px" height="30px" viewBox="0 0 30 30" version="1.1" xmlns="http://www.w3.org/2000/svg" xmlns:xlink="http://www.w3.org/1999/xlink">
    <title>形状结合</title>
    <defs>
        <linearGradient x1="41.182521%" y1="0%" x2="41.182521%" y2="100%" id="linearGradient-1">
            <stop stop-color="#FFA07E" offset="0%"></stop>
            <stop stop-color="#FF5485" offset="100%"></stop>
        </linearGradient>
    </defs>
    <g id="PRO" stroke="none" stroke-width="1" fill="none" fill-rule="evenodd">
        <g id="Standard" transform="translate(-962.000000, -338.000000)" fill="url(#linearGradient-1)">
            <path d="M977,338 C985.287879,338 992,344.712121 992,353 C992,361.287879 985.287879,368 977,368 C968.712121,368 962,361.272727 962,353 C962,344.712121 968.727273,338 977,338 Z M974.045455,355.272727 C973.439394,354.666667 972.530303,354.590909 972.030303,355.090909 C971.515152,355.590909 969.772727,359.030303 970.378788,359.636364 C970.984848,360.242424 973.727273,357.787879 974.227273,357.287879 C974.727273,356.787879 974.651515,355.878788 974.045455,355.272727 Z M983.166667,346.469697 C979.969697,345.712121 976.621212,346.954545 974.681818,349.606061 C974.606061,349.69697 974.5,349.757576 974.393939,349.787879 C973.257576,350.075758 972.227273,350.666667 971.393939,351.5 C971,351.893939 970.666667,352.333333 970.378788,352.80303 C970.136364,353.212121 970.545455,353.681818 970.984848,353.515152 C971.69697,353.257576 972.439394,353.136364 973.19697,353.136364 C973.19697,353.19697 973.181818,353.272727 973.166667,353.333333 C973.69697,353.954545 974.257576,354.560606 974.848485,355.151515 C975.439394,355.727273 976.045455,356.287879 976.666667,356.833333 C976.727273,356.833333 976.80303,356.818182 976.863636,356.80303 C976.863636,357.560606 976.742424,358.30303 976.484848,359.015152 C976.378788,359.272727 976.515152,359.560606 976.772727,359.651515 C976.909091,359.712121 977.075758,359.69697 977.19697,359.621212 C977.681818,359.333333 978.106061,359 978.5,358.606061 C979.333333,357.787879 979.924242,356.742424 980.212121,355.606061 C980.227273,355.484848 980.30303,355.393939 980.393939,355.318182 C983.045455,353.378788 984.287879,350.045455 983.530303,346.833333 C983.484848,346.651515 983.348485,346.515152 983.166667,346.469697 Z M977.848485,349.818182 C978.5,349.166667 979.545455,349.166667 980.19697,349.818182 C980.848485,350.469697 980.848485,351.530303 980.19697,352.166667 C979.545455,352.818182 978.5,352.818182 977.848485,352.166667 C977.19697,351.515152 977.19697,350.469697 977.848485,349.818182 Z" id="形状结合"></path>
        </g>
    </g>
</svg>