<?xml version="1.0" encoding="UTF-8"?>
<svg width="32px" height="32px" viewBox="0 0 32 32" version="1.1" xmlns="http://www.w3.org/2000/svg" xmlns:xlink="http://www.w3.org/1999/xlink">
    <title>形状</title>
    <defs>
        <linearGradient x1="41.182521%" y1="0%" x2="41.182521%" y2="100%" id="linearGradient-1">
            <stop stop-color="#FFA07E" offset="0%"></stop>
            <stop stop-color="#FF5485" offset="100%"></stop>
        </linearGradient>
        <linearGradient x1="41.182521%" y1="0%" x2="41.182521%" y2="100%" id="linearGradient-2">
            <stop stop-color="#FFA07E" offset="0%"></stop>
            <stop stop-color="#FF5485" offset="100%"></stop>
        </linearGradient>
    </defs>
    <g id="页面-1" stroke="none" stroke-width="1" fill="none" fill-rule="evenodd">
        <g id="PRO会员" transform="translate(-1078.000000, -24.000000)">
            <g id="编组" transform="translate(1078.000000, 24.000000)">
                <path d="M6,14.1638559 L6.06727211,13.96428 C6.26843529,13.2991889 7.00630579,12.900199 7.74433956,13.0996131 C8.07988368,13.2326636 8.34815569,13.4322395 8.48237334,13.7647041 C8.75064535,14.2303812 8.68353653,14.8289469 8.34815569,15.2280987 C8.28104687,15.2280987 8.28104687,15.294624 8.21393805,15.3608255 C9.22024383,15.9593913 10.1596041,16.5581189 11.098801,17.0899975 C11.4341819,17.2895734 11.8368348,17.5556746 12.1722157,17.7550886 C12.3064333,17.8881392 12.5077598,17.8217758 12.5748686,17.6885633 L12.6419774,17.6218762 C13.7829907,15.626603 14.8564053,13.6314917 15.9969287,11.5695313 C15.527167,11.3699555 15.1916229,10.9046021 15.1916229,10.3722379 C15.1916229,9.97324805 15.3258405,9.64062159 15.5941125,9.37468228 C16.1308198,8.84231808 16.9359624,8.90900523 17.4729963,9.37468228 L17.5399418,9.44104571 C18.0764859,10.1062986 17.8753227,10.9044403 17.0032345,11.5028442 C17.2715065,12.0350465 17.5399418,12.5669251 17.8753227,13.0326022 C18.6807918,14.4958349 19.4856079,15.9590676 20.2907505,17.3556131 C20.4919137,17.6882396 20.6261313,17.754603 20.8944033,17.555189 C22.1691444,16.8234108 23.3769399,16.0252691 24.651681,15.2938147 L24.8528442,15.1609259 C24.5844089,14.9611882 24.4501913,14.6285617 24.3832457,14.2959353 C24.3158103,13.5643189 24.919953,12.965915 25.590878,12.8993897 C26.1948574,12.8328644 26.7315647,13.2320162 26.9327279,13.830582 C26.9327279,14.0301578 27,14.0965213 27,14.1632084 L27,14.6285617 C26.7988368,15.2936528 26.3292383,15.6926427 25.5912046,15.6926427 C25.5912046,15.759168 25.5240957,15.8256933 25.5240957,15.958582 L23.3098311,23.4076342 C23.2427223,23.7404225 23.1083414,23.8069478 22.7731238,23.8069478 L10.2270395,23.8069478 C9.89133207,23.8069478 9.7572777,23.7404225 9.69016888,23.4076342 C9.08651603,21.412361 8.48253662,19.4172497 7.94566603,17.3552894 C7.81128511,16.8230871 7.6102852,16.2912085 7.47590427,15.6924808 C6.93903368,15.6924808 6.46959848,15.4265415 6.20116319,15.0273898 C6.13405437,14.8279758 6.06694554,14.7614505 6,14.628238 L6,14.1638559 L6,14.1638559 Z" id="形状" fill="url(#linearGradient-1)"></path>
                <path d="M15.924083,0.000270845002 C7.09754178,0.04247428 -0.0277548535,7.22437718 8.12826304e-05,16.0509738 C0.0280809388,24.8775705 7.19866624,32.0142565 16.0252961,32.0003677 C24.8519259,31.9864382 32.0000935,24.8271885 32.0000935,16.0005477 C32.0049525,11.7424021 30.3103574,7.65836929 27.2922662,4.65454622 C24.2741749,1.65072315 20.1821577,-0.0244998459 15.924083,0.000270845002 Z M15.924083,30.7005477 C7.79129878,30.6376253 1.24564626,24.0006369 1.29513854,15.8677615 C1.34519481,7.73488622 7.97159245,1.17851243 16.1045376,1.21498576 C24.2374828,1.2517645 30.8045607,7.86755398 30.7811458,16.0005477 C30.7654904,19.9220446 29.190302,23.6762043 26.4030484,26.4347542 C23.6157948,29.1933042 19.8455311,30.7295482 15.924083,30.7045477 L15.924083,30.7005477 Z" id="用户" fill="url(#linearGradient-2)"></path>
            </g>
        </g>
    </g>
</svg>