<?xml version="1.0" encoding="UTF-8"?>
<svg width="64px" height="64px" viewBox="0 0 64 64" version="1.1" xmlns="http://www.w3.org/2000/svg" xmlns:xlink="http://www.w3.org/1999/xlink">
    <title>chenggong</title>
    <g id="支付成功" stroke="none" stroke-width="1" fill="none" fill-rule="evenodd">
        <g id="购买" transform="translate(-636.000000, -452.000000)" fill="#00A700" fill-rule="nonzero">
            <g id="chenggong" transform="translate(636.000000, 452.000000)">
                <path d="M32,0 C49.6736,0 64,14.3264 64,32 C64,49.6736 49.6736,64 32,64 C14.3264,64 0,49.6736 0,32 C0,14.3264 14.3264,0 32,0 Z M26.3776,41.28 L19.584,34.4864 C18.7805619,33.6545381 17.5907905,33.3209182 16.4719758,33.6137676 C15.3531611,33.9066169 14.4794168,34.7803611 14.1865675,35.8991758 C13.8937182,37.0179905 14.2273381,38.2077619 15.0592,39.0112 L24.112,48.064 C25.3615996,49.3132222 27.3872005,49.3132222 28.6368,48.064 L51.2608,25.4368 C52.1124303,24.6381937 52.4615448,23.4391626 52.1717326,22.3082094 C51.8819203,21.1772562 50.9991822,20.2938934 49.8684343,20.003281 C48.7376864,19.7126687 47.5384087,20.0609349 46.7392,20.912 L26.3744,41.2736 L26.3776,41.28 Z" id="形状"></path>
            </g>
        </g>
    </g>
</svg>