<?xml version="1.0" encoding="UTF-8"?>
<svg width="31px" height="30px" viewBox="0 0 31 30" version="1.1" xmlns="http://www.w3.org/2000/svg" xmlns:xlink="http://www.w3.org/1999/xlink">
    <title>形状</title>
    <defs>
        <linearGradient x1="41.182521%" y1="0%" x2="41.182521%" y2="100%" id="linearGradient-1">
            <stop stop-color="#FFA07E" offset="0%"></stop>
            <stop stop-color="#FF5485" offset="100%"></stop>
        </linearGradient>
    </defs>
    <g id="PRO" stroke="none" stroke-width="1" fill="none" fill-rule="evenodd">
        <g id="Standard" transform="translate(-681.000000, -338.000000)" fill="url(#linearGradient-1)">
            <path d="M696.666667,368 C688.382576,368 681.666667,361.284091 681.666667,353 C681.666667,344.715909 688.382576,338 696.666667,338 C704.950758,338 711.666667,344.715909 711.666667,353 C711.666667,361.284091 704.950758,368 696.666667,368 Z M696.666667,354.363636 C698.222576,354.363636 699.393939,355.34 699.393939,356.409091 C699.393939,357.478182 698.222576,358.454545 696.666667,358.454545 C695.110758,358.454545 693.939394,357.478182 693.939394,356.409091 C693.939394,355.655975 693.328873,355.045455 692.575758,355.045455 C691.822642,355.045455 691.212121,355.655975 691.212121,356.409091 C691.212121,358.678864 692.977348,360.508864 695.30303,361.031818 L695.30303,361.863636 C695.30303,362.616752 695.913551,363.227273 696.666667,363.227273 C697.419782,363.227273 698.030303,362.616752 698.030303,361.863636 L698.030303,361.031818 C700.355985,360.508864 702.121212,358.678864 702.121212,356.409091 C702.121212,353.7125 699.629848,351.636364 696.666667,351.636364 C695.110758,351.636364 693.939394,350.66 693.939394,349.590909 C693.939394,348.521818 695.110758,347.545455 696.666667,347.545455 C698.222576,347.545455 699.393939,348.521818 699.393939,349.590909 C699.393939,350.344025 700.00446,350.954545 700.757576,350.954545 C701.510691,350.954545 702.121212,350.344025 702.121212,349.590909 C702.121212,347.321136 700.355985,345.491136 698.030303,344.968182 L698.030303,344.136364 C698.030303,343.383248 697.419782,342.772727 696.666667,342.772727 C695.913551,342.772727 695.30303,343.383248 695.30303,344.136364 L695.30303,344.968182 C692.977348,345.491136 691.212121,347.321136 691.212121,349.590909 C691.212121,352.2875 693.703485,354.363636 696.666667,354.363636 L696.666667,354.363636 Z M703.852606,346.416021 C705.491151,348.159505 706.427366,350.513243 706.427366,353.027897 C706.427366,353.765656 706.989913,354.363636 707.68338,354.363636 C708.376847,354.363636 708.939394,353.765656 708.939394,353.027897 C708.939394,349.797303 707.733839,346.766491 705.628208,344.527303 C705.400225,344.278218 705.078083,344.136364 704.740407,344.136364 C704.402731,344.136364 704.080589,344.278218 703.852606,344.527303 C703.362263,345.061408 703.362263,345.881917 703.852606,346.416021 L703.852606,346.416021 Z M689.480303,359.583724 C687.841894,357.840295 686.905758,355.486633 686.905758,352.97206 C686.905758,352.234325 686.343258,351.636364 685.649848,351.636364 C684.956439,351.636364 684.393939,352.234325 684.393939,352.97206 C684.393939,356.20255 685.599394,359.233265 687.704848,361.472381 C687.932704,361.72165 688.25486,361.863636 688.592576,361.863636 C688.930291,361.863636 689.252447,361.72165 689.480303,361.472381 C689.971212,360.950784 689.971212,360.10532 689.480303,359.583724 L689.480303,359.583724 Z" id="形状"></path>
        </g>
    </g>
</svg>