<?xml version="1.0" encoding="UTF-8"?>
<svg width="64px" height="71px" viewBox="0 0 64 71" version="1.1" xmlns="http://www.w3.org/2000/svg" xmlns:xlink="http://www.w3.org/1999/xlink">
    <title>zhuanyeban</title>
    <defs>
        <linearGradient x1="41.182521%" y1="0%" x2="41.182521%" y2="100%" id="linearGradient-1">
            <stop stop-color="#FFBF7E" offset="0%"></stop>
            <stop stop-color="#FF5485" offset="100%"></stop>
        </linearGradient>
    </defs>
    <g id="购买" stroke="none" stroke-width="1" fill="none" fill-rule="evenodd">
        <g transform="translate(-1017.000000, -280.000000)" id="zhuanyeban">
            <g transform="translate(1017.000000, 280.000000)">
                <path d="M58.4426361,56.9639212 L37.5566113,69.0235665 C34.0125123,71.0699468 29.9859824,71.0699468 26.4422597,69.0235665 L5.55661132,56.9639212 C2.01288866,54.9175408 0,51.4313938 0,47.3393857 L0,23.2185898 C0,19.1265817 2.01326497,15.6400583 5.55661132,13.5940543 L26.4422597,1.53478527 C29.9859824,-0.511595089 34.0125123,-0.511595089 37.5566113,1.53478527 L58.4426361,13.5940543 C61.9859824,15.6400583 64,19.126958 64,23.2185898 L64,47.3393857 C63.9988711,51.4313938 61.9859824,54.9179171 58.4426361,56.9639212 Z" id="路径" fill="url(#linearGradient-1)"></path>
                <path d="M8.79364034,25.5016699 L8.94868056,25.0376782 C9.41229597,23.4914154 11.1128463,22.5638083 12.813773,23.0274237 C13.5870925,23.3367515 14.2053718,23.8007432 14.5146997,24.5736864 C15.132979,25.6563338 14.9783151,27.0479326 14.2053718,27.9759161 C14.0507079,27.9759161 14.0507079,28.13058 13.896044,28.2844913 C16.21525,29.6760901 18.3801684,31.0680653 20.5447105,32.3046239 C21.3176537,32.7686156 22.2456371,33.3872713 23.0185804,33.8508867 C23.3279082,34.1602145 23.7918999,34.0059269 23.9465638,33.6962228 L24.1012277,33.5411826 C26.7308904,28.9023943 29.2047603,24.2639823 31.8332941,19.4701538 C30.7506468,19.0061621 29.9773272,17.9242674 29.9773272,16.6865798 C29.9773272,15.7589727 30.2866551,14.9856531 30.9049344,14.3673738 C32.1418693,13.1296863 33.9974599,13.2847265 35.2351475,14.3673738 L35.3894351,14.5216614 C36.6259937,16.0683005 36.1623783,17.9238911 34.1525001,19.3151136 C34.7707794,20.5524249 35.3894351,21.7889835 36.1623783,22.8716308 C38.0187215,26.2734842 39.8735594,29.6753375 41.72915,32.9221506 C42.1927654,33.6954702 42.5020932,33.8497577 43.1203725,33.3861423 C46.0582342,31.6848394 48.8418082,29.8292488 51.7796698,28.1286984 L52.2432852,27.8197469 C51.6246296,27.3553789 51.3153018,26.5820594 51.1610142,25.8087398 C51.0055976,24.1078132 52.3979491,22.7165906 53.9442119,22.5619267 C55.336187,22.4072628 56.573122,23.3352462 57.0367374,24.7268451 C57.0367374,25.1908368 57.1917776,25.3451244 57.1917776,25.5001646 L57.1917776,26.5820594 C56.7281622,28.1283221 55.6458912,29.0559293 53.9449645,29.0559293 C53.9449645,29.2105932 53.7903006,29.3652571 53.7903006,29.6742086 L48.6871443,46.9924267 C48.5324804,47.7661226 48.2227762,47.9207865 47.4502093,47.9207865 L18.5355849,47.9207865 C17.7618891,47.9207865 17.4529376,47.7661226 17.2982737,46.9924267 C15.9070511,42.3536385 14.515076,37.7152265 13.2777647,32.921398 C12.9680606,31.6840867 12.5048215,30.4475281 12.1951174,29.0555529 C10.9578061,29.0555529 9.87591138,28.4372736 9.25725575,27.5092902 C9.10259184,27.0456748 8.94792794,26.8910109 8.79364034,26.5813067 L8.79364034,25.5016699 L8.79364034,25.5016699 Z M33.0702291,50.8601533 L46.6772661,50.8601533 C47.914201,50.8601533 48.9964721,51.7885131 48.9964721,53.0250717 C48.9964721,54.1069665 48.2227762,55.1896138 47.1412578,55.3442777 L19.4631921,55.3442777 C18.5359612,55.3442777 17.6076015,54.7256221 17.29865,53.798015 C16.9889459,52.8704078 17.29865,51.7877605 18.0715932,51.3245214 C18.5355849,51.0155699 18.9992003,50.8605297 19.6182323,50.8605297 C24.1019803,50.7058658 28.5861047,50.8601533 33.0702291,50.8601533 Z" id="形状" fill="#FFFFFF" fill-rule="nonzero"></path>
            </g>
        </g>
    </g>
</svg>