<?xml version="1.0" encoding="UTF-8"?>
<svg width="31px" height="30px" viewBox="0 0 31 30" version="1.1" xmlns="http://www.w3.org/2000/svg" xmlns:xlink="http://www.w3.org/1999/xlink">
    <title>money-</title>
    <g id="standard" stroke="none" stroke-width="1" fill="none" fill-rule="evenodd">
        <g id="Standard" transform="translate(-681.000000, -338.000000)" fill="#7377DE" fill-rule="nonzero">
            <g id="money-" transform="translate(681.666667, 338.000000)">
                <path d="M15,30 C6.71590909,30 0,23.2840909 0,15 C0,6.71590909 6.71590909,0 15,0 C23.2840909,0 30,6.71590909 30,15 C30,23.2840909 23.2840909,30 15,30 Z M15,16.3636364 C16.5559091,16.3636364 17.7272727,17.34 17.7272727,18.4090909 C17.7272727,19.4781818 16.5559091,20.4545455 15,20.4545455 C13.4440909,20.4545455 12.2727273,19.4781818 12.2727273,18.4090909 C12.2727273,17.6559753 11.6622065,17.0454545 10.9090909,17.0454545 C10.1559753,17.0454545 9.54545455,17.6559753 9.54545455,18.4090909 C9.54545455,20.6788636 11.3106818,22.5088636 13.6363636,23.0318182 L13.6363636,23.8636364 C13.6363636,24.6167519 14.2468844,25.2272727 15,25.2272727 C15.7531156,25.2272727 16.3636364,24.6167519 16.3636364,23.8636364 L16.3636364,23.0318182 C18.6893182,22.5088636 20.4545455,20.6788636 20.4545455,18.4090909 C20.4545455,15.7125 17.9631818,13.6363636 15,13.6363636 C13.4440909,13.6363636 12.2727273,12.66 12.2727273,11.5909091 C12.2727273,10.5218182 13.4440909,9.54545455 15,9.54545455 C16.5559091,9.54545455 17.7272727,10.5218182 17.7272727,11.5909091 C17.7272727,12.3440247 18.3377935,12.9545455 19.0909091,12.9545455 C19.8440247,12.9545455 20.4545455,12.3440247 20.4545455,11.5909091 C20.4545455,9.32113636 18.6893182,7.49113636 16.3636364,6.96818182 L16.3636364,6.13636364 C16.3636364,5.38324807 15.7531156,4.77272727 15,4.77272727 C14.2468844,4.77272727 13.6363636,5.38324807 13.6363636,6.13636364 L13.6363636,6.96818182 C11.3106818,7.49113636 9.54545455,9.32113636 9.54545455,11.5909091 C9.54545455,14.2875 12.0368182,16.3636364 15,16.3636364 L15,16.3636364 Z M22.1859389,8.41602118 C23.8244848,10.1595054 24.7606994,12.5132432 24.7606994,15.027897 C24.7606994,15.7656561 25.3232463,16.3636364 26.0167133,16.3636364 C26.7101803,16.3636364 27.2727273,15.7656561 27.2727273,15.027897 C27.2727273,11.7973032 26.0671721,8.76649083 23.9615417,6.52730343 C23.7335587,6.27821786 23.4114161,6.13636364 23.0737403,6.13636364 C22.7360646,6.13636364 22.413922,6.27821786 22.1859389,6.52730343 C21.6955961,7.06140782 21.6955961,7.88191679 22.1859389,8.41602118 L22.1859389,8.41602118 Z M7.81363636,21.5837236 C6.17522727,19.8402954 5.23909091,17.4866332 5.23909091,14.9720601 C5.23909091,14.2343247 4.67659091,13.6363636 3.98318182,13.6363636 C3.28977273,13.6363636 2.72727273,14.2343247 2.72727273,14.9720601 C2.72727273,18.2025501 3.93272727,21.2332652 6.03818182,23.4723807 C6.2660374,23.7216498 6.58819344,23.8636364 6.92590909,23.8636364 C7.26362474,23.8636364 7.58578078,23.7216498 7.81363636,23.4723807 C8.30454545,22.9507841 8.30454545,22.1053203 7.81363636,21.5837236 L7.81363636,21.5837236 Z" id="形状"></path>
            </g>
        </g>
    </g>
</svg>