<?xml version="1.0" encoding="UTF-8"?>
<svg width="30px" height="30px" viewBox="0 0 30 30" version="1.1" xmlns="http://www.w3.org/2000/svg" xmlns:xlink="http://www.w3.org/1999/xlink">
    <title>guangjiao</title>
    <g id="standard" stroke="none" stroke-width="1" fill="none" fill-rule="evenodd">
        <g id="Standard" transform="translate(-241.000000, -338.000000)" fill="#7674E5" fill-rule="nonzero">
            <g id="guangjiao" transform="translate(241.000000, 338.000000)">
                <path d="M14.9993737,1.875 C13.5675811,1.875 10.8405362,6.17499999 10.6350996,14.0625 L19.3649004,14.0625 C19.1594639,6.17499999 16.4311662,1.875 14.9993737,1.875" id="路径"></path>
                <path d="M8.74984343,14.0625 C8.95152198,6.21500001 11.6723036,0 15.0006263,0 C7.01490667,0 0.484780158,6.21500001 0,14.0625 L8.74984343,14.0625 Z" id="路径"></path>
                <path d="M21.2501566,14.0625 L30,14.0625 C29.5139672,6.21500001 22.9850933,0 14.9993737,0 C18.3264437,0 21.0472254,6.21500001 21.2501566,14.0625" id="路径"></path>
                <path d="M8.74984343,15.9375 L0,15.9375 C0.48603283,23.785 7.01490667,30 15.0006263,30 C11.6723036,30 8.95152198,23.785 8.74984343,15.9375" id="路径"></path>
                <path d="M21.2501566,15.9375 C21.0459727,23.785 18.325191,30 14.9993737,30 C22.9850933,30 29.5139672,23.785 30,15.9375 L21.2489039,15.9375 L21.2501566,15.9375 Z" id="路径"></path>
                <path d="M14.9993737,28.125 C16.4311662,28.125 19.1582112,23.825 19.3649004,15.9375 L10.6338469,15.9375 C10.8405361,23.825 13.5675811,28.125 14.9993737,28.125" id="路径"></path>
            </g>
        </g>
    </g>
</svg>