<svg id="图层_1" data-name="图层 1" xmlns="http://www.w3.org/2000/svg" viewBox="0 0 711.71 711.71"><defs><style>.cls-1{fill:#7377de;}.cls-2{fill:#fff;}</style></defs><circle class="cls-1" cx="355.86" cy="355.86" r="355.86"/><path class="cls-2" d="M506.15,175.92c-175.69,0-318.62,142.93-318.62,318.62S330.46,813.15,506.15,813.15,824.76,670.22,824.76,494.54,681.83,175.92,506.15,175.92Zm-194.68,547c2.28-40.4,29.56-47.62,63.8-56.53,15-3.9,31.27-8.17,45.89-16.07l84.09,51.11,85-51.62c14.85,8.23,31.54,12.6,46.82,16.58,34.24,8.91,61.52,16.13,63.8,56.53a299.44,299.44,0,0,1-389.35,0Zm76.85-323.22,10.62,1.9,1.6-9a166.39,166.39,0,0,1,15.63-47.26c24.18,10.28,53.81,10.2,85.06,10.23h9.83c31.22,0,60.87.05,85.06-10.23a166.39,166.39,0,0,1,15.63,47.26l1.6,9,9-1.61,1.42-.28c8.24,0,15.47,11.71,15.47,25s-7.16,24.91-16,24.91L613.33,448,611.75,457c-11.29,64-55.7,110.51-105.61,110.51S411.82,521,400.54,457L399,448l-10.46,1.81c-8.24,0-15.47-11.7-15.47-25S380.26,399.72,388.32,399.71Zm-.9-102a62.2,62.2,0,0,1,7.94-33.58A147.42,147.42,0,0,0,436,269.84c8.22,0,17.63-1.43,28.54-3.09,34.35-5.24,81.41-12.36,124.65,23.3,34.11,28.13,29.1,57.44,28.77,59.28h0a172.51,172.51,0,0,0-10.16-20.69l-4.56-7.77-7.84,4.42c-21.34,12-50.47,12-84.36,12h-9.87c-33.76,0-63,.06-84.37-12L409,320.88l-4.55,7.77A171.74,171.74,0,0,0,396.16,345c-1.06-5.11-2.19-9.85-3.29-14.36C390.21,319.67,387.9,310.19,387.42,297.66Zm118.72,288.1a103.63,103.63,0,0,0,41-8.48c2.56,29.44,12.95,48.22,26.94,61L505.25,680l-67.69-41.15c14.35-12.73,25-31.66,27.64-61.6A103.58,103.58,0,0,0,506.14,585.76Zm211.22,122c-8.61-41.58-44-50.83-75.72-59.09-40.15-10.46-74.86-19.68-76.7-81.1,30.46-20.11,53.79-55.59,63.35-99.84,16.73-2.75,29.27-20.64,29.27-43,0-20.55-10.65-37.19-25.37-41.88l3.86-30.57c.34-1.66,7.81-40.94-35.17-76.39-49.56-40.88-103.42-32.7-139.06-27.28-10.16,1.55-18.94,2.88-25.78,2.88a123.32,123.32,0,0,1-40.92-6.79l-6.05-2.42-4.27,4.92c-.69.8-16.88,19.84-15.67,51.13.56,14.35,3.18,25.16,6,36.6,3.16,13,6.41,26.45,7.13,47.32-15.81,3.7-27.49,20.95-27.49,42.48,0,22.34,12.54,40.23,29.27,43,9.56,44.25,32.89,79.73,63.35,99.84-1.84,61.42-36.56,70.64-76.7,81.1-31.72,8.26-67.11,17.51-75.72,59.09a299.35,299.35,0,0,1-89.1-213.24c0-165.6,134.72-300.32,300.32-300.32s300.3,134.72,300.3,300.32A299.38,299.38,0,0,1,717.36,707.78Z" transform="translate(-150.29 -138.68)"/></svg>