<?xml version="1.0" encoding="utf-8"?>
<!-- Generator: Adobe Illustrator 25.2.3, SVG Export Plug-In . SVG Version: 6.00 Build 0)  -->
<svg version="1.1" id="图层_1" xmlns="http://www.w3.org/2000/svg" xmlns:xlink="http://www.w3.org/1999/xlink" x="0px" y="0px"
	 viewBox="0 0 617.9 120.7" style="enable-background:new 0 0 617.9 120.7;" xml:space="preserve">
<style type="text/css">
	.st0{fill:#B2B9C1;}
</style>
<path class="st0" d="M160.6,94.3L172.7,25h26.4c13.1,0,22.5,3.4,28.2,10.3s7.7,15.4,6,25.5c-1.8,10.2-6.3,18.4-13.4,24.4
	s-17.4,9.1-30.6,9.1L160.6,94.3z M186.6,77.7h2.1c6.1,0,10.9-1.5,14.4-4.4s5.8-7.5,6.9-13.7c1.1-6.2,0.3-10.8-2.2-13.7
	c-2.6-2.9-6.9-4.4-13-4.4h-1.8L186.6,77.7z"/>
<path class="st0" d="M262.8,95.7c-8.2,0-14.6-2.5-19.1-7.4c-4.5-5-6.3-11.4-5.5-19.2c0.6-7.3,4.1-14.1,9.8-18.8
	c5.4-4.7,12.3-7.3,19.5-7.2c6.8,0,12.3,1.9,16.5,5.6c4.2,3.7,6,8.7,5.4,14.8c-0.2,2.8-0.8,5.6-1.7,8.3h-28.7c-0.1,3.4,0.9,6,2.8,7.7
	s5,2.7,9.2,2.7c5.7,0.1,11.3-1.6,16-4.7l-2.1,12.3C279.2,93.7,271.9,95.7,262.8,95.7z M260.1,63.1h11c0.4-1,0.8-2,0.9-3
	c0.4-1.4,0.1-2.9-0.7-4.1c-0.8-1.1-2.1-1.7-3.5-1.5C264.2,54.5,261.6,57.4,260.1,63.1L260.1,63.1z"/>
<path class="st0" d="M295.1,94.3L307.3,25h47.6L352,41.2h-24.5l-1.9,10.7h19l-2.9,16h-19l-4.6,26.4L295.1,94.3z"/>
<path class="st0" d="M348.5,94.3l8.8-49.9h21.6l-8.8,49.9H348.5z M358.3,38.7l2.4-13.7h21.6l-2.4,13.7H358.3z"/>
<path class="st0" d="M409.3,51.8c5.5-5.9,11.8-8.8,18.9-8.8c5.1,0,9.1,1.8,11.7,5.3s3.5,8.3,2.5,14.3L437,94.3h-21.4l4.8-27.9
	c0.8-4.5-0.7-6.7-4.3-6.7c-2.3,0.1-4.5,1.2-5.9,3c-1.8,2-3.1,5-3.8,8.9l-3.9,22.7H381l6.1-34.6c0.9-5,1.5-10.1,1.7-15.2h20.6
	C409.6,46.9,409.5,49.4,409.3,51.8z"/>
<path class="st0" d="M489.6,46.4l3.5-21.4h21l-9.5,53.9c-0.9,5.1-1.5,10.2-1.5,15.3h-18.8c-0.2-2.2-0.2-4.4,0-6.6
	c-3.4,5.3-8.8,8-16.1,8c-6.8,0-11.9-2.7-15.3-8s-4.5-11.7-3.2-19c1.1-7.1,4.5-13.6,9.7-18.5c5.1-4.8,12-7.4,19-7.2
	C482.4,43,486.3,44.2,489.6,46.4z M476.4,81.1c4.9,0,8.1-3.9,9.5-11.8c0.6-3.6,0.5-6.5-0.5-8.6c-0.8-2.1-2.9-3.3-5.1-3.2
	c-4.9,0-8.1,3.9-9.5,11.8c-0.6,3.6-0.5,6.5,0.5,8.6C472.1,80,474.2,81.3,476.4,81.1z"/>
<path class="st0" d="M539.9,95.7c-8.2,0-14.6-2.5-19.1-7.4c-4.5-5-6.3-11.4-5.5-19.2c0.6-7.3,4.1-14.1,9.7-18.8
	c5.4-4.7,12.3-7.3,19.5-7.2c6.8,0,12.2,1.9,16.5,5.6c4.2,3.7,6,8.7,5.4,14.8c-0.2,2.8-0.8,5.6-1.7,8.3h-28.6c-0.1,3.4,0.9,6,2.8,7.7
	s5,2.7,9.2,2.7c5.7,0.1,11.3-1.6,16-4.7l-2,12.3C556.3,93.7,548.9,95.7,539.9,95.7z M537.2,63.1h11c0.4-1,0.8-2,0.9-3
	c0.4-1.4,0.1-2.9-0.7-4.1c-0.8-1.1-2.1-1.6-3.4-1.6C541.4,54.5,538.8,57.3,537.2,63.1L537.2,63.1z"/>
<path class="st0" d="M571,94.3l6-34.6c1-5,1.5-10.1,1.7-15.2h20.7c0.1,2.6,0.1,5.2-0.2,7.8c4.2-6.8,10.5-9.9,18.7-9.2l-4.2,23.1
	c-1.9-1-4-1.6-6.1-1.6c-2.9-0.2-5.7,0.8-7.8,2.6c-1.9,1.7-3.2,4.7-3.9,9l-3.2,18.2L571,94.3z"/>
<path class="st0" d="M60.3,0H0v120.7h60.4c11.5,0,22.8-3.3,32.4-9.5L79.1,97.5c-20.5,10.4-45.6,2.2-56-18.4s-2.2-45.6,18.4-56
	s45.6-2.2,56,18.4c6.3,12.4,6,27.2-0.9,39.3l13.6,13.5c6.9-10,10.5-21.9,10.5-34l0,0C120.7,27.1,93.7,0,60.3,0C60.3,0,60.3,0,60.3,0
	z"/>
<circle class="st0" cx="60.5" cy="60.8" r="22.6"/>
</svg>
