<svg xmlns="http://www.w3.org/2000/svg" width="17" height="17" viewBox="0 0 17 17" fill="none">
<path d="M0.393066 8.94391C0.393066 4.52563 3.97479 0.943909 8.39307 0.943909C12.8113 0.943909 16.3931 4.52563 16.3931 8.94391C16.3931 13.3622 12.8113 16.9439 8.39307 16.9439C3.97479 16.9439 0.393066 13.3622 0.393066 8.94391Z" fill="#3F93C0" fill-opacity="0.2"/>
<g clip-path="url(#clip0_15095_121102)">
<path d="M13.1329 4.46473C12.771 4.4651 12.4222 4.59982 12.154 4.84277C11.8858 5.08572 11.7173 5.4196 11.6813 5.77968C11.5443 5.73665 11.4015 5.71473 11.258 5.71468C11.0665 5.71468 10.8768 5.7524 10.6999 5.82569C10.523 5.89897 10.3622 6.00639 10.2268 6.1418C10.0914 6.27721 9.98397 6.43797 9.91068 6.6149C9.8374 6.79183 9.79968 6.98145 9.79968 7.17296C9.79968 7.20032 9.80507 7.22741 9.81554 7.25268C9.82601 7.27796 9.84135 7.30092 9.8607 7.32027C9.88004 7.33961 9.90301 7.35496 9.92828 7.36543C9.95356 7.3759 9.98065 7.38128 10.008 7.38128H11.0496C11.2706 7.38128 11.4826 7.46908 11.6389 7.62535C11.7951 7.78163 11.8829 7.99358 11.8829 8.21459C11.8829 8.43559 11.7951 8.64754 11.6389 8.80382C11.4826 8.96009 11.2706 9.04789 11.0496 9.04789H6.25815C5.37889 9.06013 4.5109 9.24752 3.70491 9.59912C3.6509 9.61871 3.60196 9.65013 3.56166 9.69108C3.52136 9.73202 3.49073 9.78146 3.472 9.83577C3.43259 9.94168 3.43633 10.0588 3.48242 10.162C3.5736 10.3549 3.67571 10.5424 3.78824 10.7237C4.20864 12.2236 5.02528 13.7956 7.33727 13.7956C7.8199 13.7958 8.30058 13.7343 8.76764 13.6127C8.59939 13.378 8.46123 13.1231 8.3564 12.854C7.34769 13.0748 6.16065 13.0232 5.42443 12.2103C5.08226 11.8009 4.83026 11.3241 4.68487 10.8107C5.47882 10.8843 6.23595 11.1802 6.86937 11.6645C7.30224 11.9556 7.76079 12.2067 8.23932 12.4144C8.2476 12.3418 8.28109 12.2744 8.33394 12.2239C8.3868 12.1734 8.45569 12.143 8.52862 12.1381C8.60155 12.1331 8.67391 12.1539 8.73311 12.1968C8.79231 12.2396 8.8346 12.3019 8.85263 12.3728C8.995 12.8923 9.29949 13.3528 9.72177 13.6873C9.9711 13.8448 10.2578 13.9333 10.5526 13.9435C10.5844 13.9456 10.6162 13.9394 10.645 13.9256C10.6738 13.9118 10.6986 13.8909 10.717 13.8648C10.7353 13.8387 10.7467 13.8084 10.7501 13.7767C10.7534 13.7449 10.7485 13.7129 10.7359 13.6835L10.2601 12.574C10.2274 12.4978 10.2263 12.4117 10.257 12.3347C10.2878 12.2577 10.3478 12.1961 10.424 12.1634C10.5002 12.1307 10.5863 12.1296 10.6633 12.1603C10.7403 12.1911 10.8019 12.2512 10.8346 12.3273L10.9596 12.6153C10.9626 12.6103 11.6109 12.1153 11.6109 12.1153C12.1344 11.6488 12.5578 11.0809 12.8555 10.446C13.1532 9.81113 13.319 9.12246 13.3429 8.42166V4.6718C13.3427 4.64441 13.3372 4.61732 13.3265 4.59208C13.3159 4.56684 13.3003 4.54395 13.2808 4.52471C13.2613 4.50548 13.2382 4.49028 13.2128 4.47999C13.1874 4.46969 13.1603 4.46451 13.1329 4.46473ZM7.5081 10.8187C7.42569 10.8187 7.34514 10.7942 7.27662 10.7484C7.2081 10.7027 7.1547 10.6376 7.12316 10.5614C7.09163 10.4853 7.08338 10.4015 7.09945 10.3207C7.11553 10.2399 7.15521 10.1657 7.21348 10.1074C7.27175 10.0491 7.34599 10.0094 7.42681 9.99336C7.50764 9.97728 7.59141 9.98553 7.66754 10.0171C7.74368 10.0486 7.80875 10.102 7.85453 10.1705C7.90031 10.239 7.92475 10.3196 7.92475 10.402C7.92475 10.5125 7.88085 10.6185 7.80272 10.6966C7.72458 10.7748 7.6186 10.8187 7.5081 10.8187Z" fill="#5A66F9"/>
<path d="M4.69571 5.81884C4.75042 5.81884 4.8046 5.80806 4.85515 5.78712C4.9057 5.76618 4.95163 5.73549 4.99032 5.6968C5.02901 5.65811 5.0597 5.61218 5.08064 5.56163C5.10158 5.51108 5.11236 5.4569 5.11236 5.40219C5.11236 5.23643 5.1782 5.07747 5.29541 4.96026C5.41262 4.84306 5.57158 4.77721 5.73733 4.77721C5.90309 4.77721 6.06205 4.84306 6.17926 4.96026C6.29646 5.07747 6.36231 5.23643 6.36231 5.40219V7.90209C6.36231 8.01259 6.40621 8.11857 6.48434 8.19671C6.56248 8.27485 6.66846 8.31874 6.77896 8.31874C6.88946 8.31874 6.99544 8.27485 7.07358 8.19671C7.15171 8.11857 7.19561 8.01259 7.19561 7.90209V5.40219C7.19561 5.23643 7.26146 5.07747 7.37866 4.96026C7.49587 4.84306 7.65483 4.77721 7.82059 4.77721C7.98634 4.77721 8.14531 4.84306 8.26251 4.96026C8.37972 5.07747 8.44556 5.23643 8.44556 5.40219C8.44556 5.51269 8.48946 5.61867 8.5676 5.6968C8.64573 5.77494 8.75171 5.81884 8.86221 5.81884C8.97272 5.81884 9.07869 5.77494 9.15683 5.6968C9.23497 5.61867 9.27886 5.51269 9.27886 5.40219C9.27866 5.11259 9.19223 4.82961 9.0306 4.58931C8.86896 4.34902 8.63944 4.16229 8.37128 4.05293C8.10313 3.94356 7.80848 3.91652 7.5249 3.97524C7.24132 4.03396 6.98164 4.17579 6.77896 4.38264C6.57628 4.17579 6.31661 4.03396 6.03302 3.97524C5.74944 3.91652 5.45479 3.94356 5.18664 4.05293C4.91848 4.16229 4.68896 4.34902 4.52733 4.58931C4.36569 4.82961 4.27926 5.11259 4.27906 5.40219C4.27906 5.51269 4.32295 5.61867 4.40109 5.6968C4.43978 5.73549 4.48571 5.76618 4.53626 5.78712C4.58681 5.80806 4.64099 5.81884 4.69571 5.81884Z" fill="#5A66F9"/>
</g>
<defs>
<clipPath id="clip0_15095_121102">
<rect width="10" height="10" fill="white" transform="translate(3.39307 3.94391)"/>
</clipPath>
</defs>
</svg>