<svg id="图层_1" data-name="图层 1" xmlns="http://www.w3.org/2000/svg" width="200" height="200" viewBox="0 0 200 200">
  <defs>
    <style>
      .cls-1, .cls-2 {
        fill: #e66;
      }

      .cls-1 {
        opacity: 0.1;
      }
    </style>
  </defs>
  <circle class="cls-1" cx="100" cy="100" r="100"/>
  <g>
    <path class="cls-2" d="M116.55,43.84s4.94-.25,8,2.68c1.83,1.72,2.76,4.33,2.76,7.75v3.84a3,3,0,1,0,6,0V54.28c0-3.43.93-6,2.75-7.76,3.11-2.93,8-2.68,8-2.68a3,3,0,1,0,.41-6c-.3,0-7.46-.45-12.5,4.23A13.67,13.67,0,0,0,130.34,44a14.71,14.71,0,0,0-1.68-1.93c-5-4.7-12.2-4.28-12.5-4.23a3,3,0,1,0,.38,6Z"/>
    <path class="cls-2" d="M156.14,80.13c-8.67-7.57-17.41-11-29.11-11C101,69.1,89.7,91.52,87.4,97.45c-2,5.13-8.46,7.45-12.86,7.45S63,102.66,63,98.55s4.27-3.92,8.67-8c7.14-6.71,10.76-19.6,6.94-21.57-4.7-2.49-10.64-.38-15,3-3.94,3-6.45,7.23-8.46,7.23-4.23,0-7.05-7.26-17.17-7.26-2,0-8.46-.37-8.46,4.84,0,3.48,4.48,11,9.16,14.72,4.94,3.92,10.09,4.07,11.5,6s.94,10.25,3.91,19.14c2.82,8.41,9.43,17.56,10,17.77,12,14.41,26.21,17,26.12,17.36-.83,2.82-2.35,3.88-2.67,5.64-.38,2,.79,4.77,4.88,4.77,3.23,0,10.46-2.22,15.58-6.34,1.34-1.07,18.33,4.62,36.67-3.53,20.75-9.4,25.95-29.21,25.95-40.13C170.56,103.83,166.79,89.43,156.14,80.13Zm-7.35,17.34a3,3,0,0,1-3-3h0c0-2-1.26-3.72-2.74-3.72s-2.76,1.71-2.76,3.72a3,3,0,1,1-6,0c0-5.35,3.92-9.71,8.75-9.71s8.74,4.36,8.74,9.71a3,3,0,0,1-3,3Z"/>
  </g>
</svg>
