<svg xmlns="http://www.w3.org/2000/svg" width="17" height="17" viewBox="0 0 17 17" fill="none">
<path d="M0.10405 8.94391C0.10405 4.52563 3.68577 0.943909 8.10405 0.943909C12.5223 0.943909 16.104 4.52563 16.104 8.94391C16.104 13.3622 12.5223 16.9439 8.10405 16.9439C3.68577 16.9439 0.10405 13.3622 0.10405 8.94391Z" fill="#BB6BD9" fill-opacity="0.2"/>
<g clip-path="url(#clip0_15095_121103)">
<path d="M12.8439 4.46473C12.482 4.4651 12.1331 4.59982 11.8649 4.84277C11.5967 5.08572 11.4283 5.4196 11.3923 5.77968C11.2553 5.73665 11.1125 5.71473 10.9689 5.71468C10.7774 5.71468 10.5878 5.7524 10.4109 5.82569C10.234 5.89897 10.0732 6.00639 9.93778 6.1418C9.80237 6.27721 9.69495 6.43797 9.62167 6.6149C9.54838 6.79183 9.51066 6.98145 9.51066 7.17296C9.51066 7.20032 9.51605 7.22741 9.52652 7.25268C9.53699 7.27796 9.55233 7.30092 9.57168 7.32027C9.59102 7.33961 9.61399 7.35496 9.63927 7.36543C9.66454 7.3759 9.69163 7.38128 9.71899 7.38128H10.7606C10.9816 7.38128 11.1936 7.46908 11.3498 7.62535C11.5061 7.78163 11.5939 7.99358 11.5939 8.21459C11.5939 8.43559 11.5061 8.64754 11.3498 8.80382C11.1936 8.96009 10.9816 9.04789 10.7606 9.04789H5.96913C5.08988 9.06013 4.22188 9.24752 3.41589 9.59912C3.36189 9.61871 3.31294 9.65013 3.27265 9.69108C3.23235 9.73202 3.20171 9.78146 3.18298 9.83577C3.14358 9.94168 3.14732 10.0588 3.1934 10.162C3.28459 10.3549 3.38669 10.5424 3.49922 10.7237C3.91962 12.2236 4.73626 13.7956 7.04826 13.7956C7.53089 13.7958 8.01156 13.7343 8.47862 13.6127C8.31037 13.378 8.17222 13.1231 8.06738 12.854C7.05867 13.0748 5.87163 13.0232 5.13541 12.2103C4.79325 11.8009 4.54124 11.3241 4.39586 10.8107C5.1898 10.8843 5.94693 11.1802 6.58036 11.6645C7.01322 11.9556 7.47178 12.2067 7.9503 12.4144C7.95859 12.3418 7.99207 12.2744 8.04493 12.2239C8.09778 12.1734 8.16667 12.143 8.2396 12.1381C8.31253 12.1331 8.38489 12.1539 8.44409 12.1968C8.50329 12.2396 8.54559 12.3019 8.56362 12.3728C8.70599 12.8923 9.01048 13.3528 9.43275 13.6873C9.68208 13.8448 9.9688 13.9333 10.2636 13.9435C10.2954 13.9456 10.3272 13.9394 10.356 13.9256C10.3848 13.9118 10.4095 13.8909 10.4279 13.8648C10.4463 13.8387 10.4577 13.8084 10.461 13.7767C10.4644 13.7449 10.4595 13.7129 10.4469 13.6835L9.97106 12.574C9.93835 12.4978 9.93725 12.4117 9.968 12.3347C9.99874 12.2577 10.0588 12.1961 10.135 12.1634C10.2112 12.1307 10.2973 12.1296 10.3743 12.1603C10.4513 12.1911 10.5129 12.2512 10.5456 12.3273L10.6706 12.6153C10.6735 12.6103 11.3218 12.1153 11.3218 12.1153C11.8453 11.6488 12.2688 11.0809 12.5665 10.446C12.8642 9.81113 13.03 9.12246 13.0539 8.42166V4.6718C13.0537 4.64441 13.0481 4.61732 13.0375 4.59208C13.0268 4.56684 13.0113 4.54395 12.9918 4.52471C12.9723 4.50548 12.9492 4.49028 12.9238 4.47999C12.8984 4.46969 12.8713 4.46451 12.8439 4.46473ZM7.21908 10.8187C7.13668 10.8187 7.05612 10.7942 6.9876 10.7484C6.91909 10.7027 6.86568 10.6376 6.83415 10.5614C6.80261 10.4853 6.79436 10.4015 6.81044 10.3207C6.82651 10.2399 6.8662 10.1657 6.92447 10.1074C6.98274 10.0491 7.05698 10.0094 7.1378 9.99336C7.21862 9.97728 7.30239 9.98553 7.37853 10.0171C7.45466 10.0486 7.51973 10.102 7.56552 10.1705C7.6113 10.239 7.63573 10.3196 7.63573 10.402C7.63573 10.5125 7.59184 10.6185 7.5137 10.6966C7.43556 10.7748 7.32959 10.8187 7.21908 10.8187Z" fill="#5A66F9"/>
<path d="M4.40669 5.81884C4.4614 5.81884 4.51558 5.80806 4.56613 5.78712C4.61668 5.76618 4.66261 5.73549 4.7013 5.6968C4.73999 5.65811 4.77068 5.61218 4.79162 5.56163C4.81256 5.51108 4.82334 5.4569 4.82334 5.40219C4.82334 5.23643 4.88918 5.07747 5.00639 4.96026C5.12359 4.84306 5.28256 4.77721 5.44831 4.77721C5.61407 4.77721 5.77303 4.84306 5.89024 4.96026C6.00744 5.07747 6.07329 5.23643 6.07329 5.40219V7.90209C6.07329 8.01259 6.11719 8.11857 6.19532 8.19671C6.27346 8.27485 6.37944 8.31874 6.48994 8.31874C6.60044 8.31874 6.70642 8.27485 6.78456 8.19671C6.86269 8.11857 6.90659 8.01259 6.90659 7.90209V5.40219C6.90659 5.23643 6.97244 5.07747 7.08964 4.96026C7.20685 4.84306 7.36581 4.77721 7.53157 4.77721C7.69732 4.77721 7.85629 4.84306 7.97349 4.96026C8.0907 5.07747 8.15654 5.23643 8.15654 5.40219C8.15654 5.51269 8.20044 5.61867 8.27858 5.6968C8.35671 5.77494 8.46269 5.81884 8.57319 5.81884C8.6837 5.81884 8.78967 5.77494 8.86781 5.6968C8.94595 5.61867 8.98984 5.51269 8.98984 5.40219C8.98964 5.11259 8.90321 4.82961 8.74158 4.58931C8.57994 4.34902 8.35042 4.16229 8.08226 4.05293C7.81411 3.94356 7.51946 3.91652 7.23588 3.97524C6.9523 4.03396 6.69262 4.17579 6.48994 4.38264C6.28726 4.17579 6.02758 4.03396 5.744 3.97524C5.46042 3.91652 5.16577 3.94356 4.89762 4.05293C4.62946 4.16229 4.39994 4.34902 4.2383 4.58931C4.07667 4.82961 3.99024 5.11259 3.99004 5.40219C3.99004 5.51269 4.03393 5.61867 4.11207 5.6968C4.15076 5.73549 4.19669 5.76618 4.24724 5.78712C4.29779 5.80806 4.35197 5.81884 4.40669 5.81884Z" fill="#5A66F9"/>
</g>
<defs>
<clipPath id="clip0_15095_121103">
<rect width="10" height="10" fill="white" transform="translate(3.10405 3.94391)"/>
</clipPath>
</defs>
</svg>